<svg width="60" height="60" viewBox="0 0 60 60" fill="none" xmlns="http://www.w3.org/2000/svg">
  <!-- Background circle -->
  <circle cx="30" cy="30" r="26" fill="url(#gradient1)" stroke="white" stroke-width="2"/>
  
  <!-- Brain/Neural network icon -->
  <g transform="translate(15, 15)">
    <!-- Brain outline -->
    <path d="M8 10c0-4.4 3.6-8 8-8s8 3.6 8 8c0 1.1-.2 2.1-.6 3.1 1.4.9 2.6 2.4 2.6 4.9 0 2.8-2.2 5-5 5H9c-2.8 0-5-2.2-5-5 0-2.5 1.2-4 2.6-4.9-.4-1-.6-2-.6-3.1z" 
          fill="white" stroke="none"/>
    
    <!-- Neural connections -->
    <circle cx="12" cy="12" r="1.5" fill="#3b82f6"/>
    <circle cx="20" cy="12" r="1.5" fill="#3b82f6"/>
    <circle cx="16" cy="18" r="1.5" fill="#10b981"/>
    <circle cx="10" cy="20" r="1.5" fill="#f97316"/>
    <circle cx="22" cy="20" r="1.5" fill="#f97316"/>
    
    <!-- Connection lines -->
    <line x1="12" y1="12" x2="16" y2="18" stroke="#3b82f6" stroke-width="1" opacity="0.6"/>
    <line x1="20" y1="12" x2="16" y2="18" stroke="#3b82f6" stroke-width="1" opacity="0.6"/>
    <line x1="16" y1="18" x2="10" y2="20" stroke="#10b981" stroke-width="1" opacity="0.6"/>
    <line x1="16" y1="18" x2="22" y2="20" stroke="#10b981" stroke-width="1" opacity="0.6"/>
  </g>
  
  <!-- Gradient definitions -->
  <defs>
    <linearGradient id="gradient1" x1="0%" y1="0%" x2="100%" y2="100%">
      <stop offset="0%" style="stop-color:#3b82f6;stop-opacity:1" />
      <stop offset="50%" style="stop-color:#1d4ed8;stop-opacity:1" />
      <stop offset="100%" style="stop-color:#1e40af;stop-opacity:1" />
    </linearGradient>
  </defs>
</svg>